M48
INCH,TZ
T1C0.0394
T2C0.0400
%
G90
G05
T1
X43602Y-37386
X43602Y-38386
X43602Y-30413
X43602Y-31413
X43602Y-32413
X43602Y-33413
X43602Y-34413
X43602Y-35413
T2
X39748Y-29878
X39748Y-30878
X39748Y-31878
X39748Y-32878
X39748Y-33878
X39748Y-34878
X39748Y-35878
X39748Y-36878
X39748Y-37878
X39748Y-38878
X40748Y-29878
X40748Y-30878
X40748Y-31878
X40748Y-32878
X40748Y-33878
X40748Y-34878
X40748Y-35878
X40748Y-36878
X40748Y-37878
X40748Y-38878
X46358Y-33366
X46358Y-34366
X46358Y-35366
X47358Y-33366
X47358Y-34366
X47358Y-35366
T0
M30
