G04 #@! TF.GenerationSoftware,KiCad,Pcbnew,(5.0.1-3-g963ef8bb5)*
G04 #@! TF.CreationDate,2018-11-27T15:22:05+00:00*
G04 #@! TF.ProjectId,jlink-swd-adapter,6A6C696E6B2D7377642D616461707465,rev?*
G04 #@! TF.SameCoordinates,Original*
G04 #@! TF.FileFunction,Paste,Top*
G04 #@! TF.FilePolarity,Positive*
%FSLAX46Y46*%
G04 Gerber Fmt 4.6, Leading zero omitted, Abs format (unit mm)*
G04 Created by KiCad (PCBNEW (5.0.1-3-g963ef8bb5)) date Tuesday, 27 November 2018 at 15:22:05*
%MOMM*%
%LPD*%
G01*
G04 APERTURE LIST*
%ADD10C,0.100000*%
%ADD11C,0.950000*%
G04 APERTURE END LIST*
D10*
G04 #@! TO.C,R1*
G36*
X121185779Y-97026144D02*
X121208834Y-97029563D01*
X121231443Y-97035227D01*
X121253387Y-97043079D01*
X121274457Y-97053044D01*
X121294448Y-97065026D01*
X121313168Y-97078910D01*
X121330438Y-97094562D01*
X121346090Y-97111832D01*
X121359974Y-97130552D01*
X121371956Y-97150543D01*
X121381921Y-97171613D01*
X121389773Y-97193557D01*
X121395437Y-97216166D01*
X121398856Y-97239221D01*
X121400000Y-97262500D01*
X121400000Y-97737500D01*
X121398856Y-97760779D01*
X121395437Y-97783834D01*
X121389773Y-97806443D01*
X121381921Y-97828387D01*
X121371956Y-97849457D01*
X121359974Y-97869448D01*
X121346090Y-97888168D01*
X121330438Y-97905438D01*
X121313168Y-97921090D01*
X121294448Y-97934974D01*
X121274457Y-97946956D01*
X121253387Y-97956921D01*
X121231443Y-97964773D01*
X121208834Y-97970437D01*
X121185779Y-97973856D01*
X121162500Y-97975000D01*
X120587500Y-97975000D01*
X120564221Y-97973856D01*
X120541166Y-97970437D01*
X120518557Y-97964773D01*
X120496613Y-97956921D01*
X120475543Y-97946956D01*
X120455552Y-97934974D01*
X120436832Y-97921090D01*
X120419562Y-97905438D01*
X120403910Y-97888168D01*
X120390026Y-97869448D01*
X120378044Y-97849457D01*
X120368079Y-97828387D01*
X120360227Y-97806443D01*
X120354563Y-97783834D01*
X120351144Y-97760779D01*
X120350000Y-97737500D01*
X120350000Y-97262500D01*
X120351144Y-97239221D01*
X120354563Y-97216166D01*
X120360227Y-97193557D01*
X120368079Y-97171613D01*
X120378044Y-97150543D01*
X120390026Y-97130552D01*
X120403910Y-97111832D01*
X120419562Y-97094562D01*
X120436832Y-97078910D01*
X120455552Y-97065026D01*
X120475543Y-97053044D01*
X120496613Y-97043079D01*
X120518557Y-97035227D01*
X120541166Y-97029563D01*
X120564221Y-97026144D01*
X120587500Y-97025000D01*
X121162500Y-97025000D01*
X121185779Y-97026144D01*
X121185779Y-97026144D01*
G37*
D11*
X120875000Y-97500000D03*
D10*
G36*
X119435779Y-97026144D02*
X119458834Y-97029563D01*
X119481443Y-97035227D01*
X119503387Y-97043079D01*
X119524457Y-97053044D01*
X119544448Y-97065026D01*
X119563168Y-97078910D01*
X119580438Y-97094562D01*
X119596090Y-97111832D01*
X119609974Y-97130552D01*
X119621956Y-97150543D01*
X119631921Y-97171613D01*
X119639773Y-97193557D01*
X119645437Y-97216166D01*
X119648856Y-97239221D01*
X119650000Y-97262500D01*
X119650000Y-97737500D01*
X119648856Y-97760779D01*
X119645437Y-97783834D01*
X119639773Y-97806443D01*
X119631921Y-97828387D01*
X119621956Y-97849457D01*
X119609974Y-97869448D01*
X119596090Y-97888168D01*
X119580438Y-97905438D01*
X119563168Y-97921090D01*
X119544448Y-97934974D01*
X119524457Y-97946956D01*
X119503387Y-97956921D01*
X119481443Y-97964773D01*
X119458834Y-97970437D01*
X119435779Y-97973856D01*
X119412500Y-97975000D01*
X118837500Y-97975000D01*
X118814221Y-97973856D01*
X118791166Y-97970437D01*
X118768557Y-97964773D01*
X118746613Y-97956921D01*
X118725543Y-97946956D01*
X118705552Y-97934974D01*
X118686832Y-97921090D01*
X118669562Y-97905438D01*
X118653910Y-97888168D01*
X118640026Y-97869448D01*
X118628044Y-97849457D01*
X118618079Y-97828387D01*
X118610227Y-97806443D01*
X118604563Y-97783834D01*
X118601144Y-97760779D01*
X118600000Y-97737500D01*
X118600000Y-97262500D01*
X118601144Y-97239221D01*
X118604563Y-97216166D01*
X118610227Y-97193557D01*
X118618079Y-97171613D01*
X118628044Y-97150543D01*
X118640026Y-97130552D01*
X118653910Y-97111832D01*
X118669562Y-97094562D01*
X118686832Y-97078910D01*
X118705552Y-97065026D01*
X118725543Y-97053044D01*
X118746613Y-97043079D01*
X118768557Y-97035227D01*
X118791166Y-97029563D01*
X118814221Y-97026144D01*
X118837500Y-97025000D01*
X119412500Y-97025000D01*
X119435779Y-97026144D01*
X119435779Y-97026144D01*
G37*
D11*
X119125000Y-97500000D03*
G04 #@! TD*
M02*
