G04 #@! TF.GenerationSoftware,KiCad,Pcbnew,(5.0.1-3-g963ef8bb5)*
G04 #@! TF.CreationDate,2018-11-27T15:22:05+00:00*
G04 #@! TF.ProjectId,jlink-swd-adapter,6A6C696E6B2D7377642D616461707465,rev?*
G04 #@! TF.SameCoordinates,Original*
G04 #@! TF.FileFunction,Legend,Top*
G04 #@! TF.FilePolarity,Positive*
%FSLAX46Y46*%
G04 Gerber Fmt 4.6, Leading zero omitted, Abs format (unit mm)*
G04 Created by KiCad (PCBNEW (5.0.1-3-g963ef8bb5)) date Tuesday, 27 November 2018 at 15:22:05*
%MOMM*%
%LPD*%
G01*
G04 APERTURE LIST*
%ADD10C,0.120000*%
%ADD11C,0.150000*%
G04 APERTURE END LIST*
D10*
G04 #@! TO.C,R1*
X120171267Y-98010000D02*
X119828733Y-98010000D01*
X120171267Y-96990000D02*
X119828733Y-96990000D01*
G04 #@! TO.C,J2*
X112080000Y-93630000D02*
X109420000Y-93630000D01*
X112080000Y-96230000D02*
X112080000Y-93630000D01*
X109420000Y-96230000D02*
X109420000Y-93630000D01*
X112080000Y-96230000D02*
X109420000Y-96230000D01*
X112080000Y-97500000D02*
X112080000Y-98830000D01*
X112080000Y-98830000D02*
X110750000Y-98830000D01*
G04 #@! TO.C,J4*
X109420000Y-91280000D02*
X112080000Y-91280000D01*
X109420000Y-78520000D02*
X109420000Y-91280000D01*
X112080000Y-78520000D02*
X112080000Y-91280000D01*
X109420000Y-78520000D02*
X112080000Y-78520000D01*
X109420000Y-77250000D02*
X109420000Y-75920000D01*
X109420000Y-75920000D02*
X110750000Y-75920000D01*
G04 #@! TO.C,J1*
X97555000Y-104100000D02*
X97555000Y-70540000D01*
X97555000Y-70540000D02*
X106905000Y-70540000D01*
X106905000Y-70540000D02*
X106905000Y-104100000D01*
X106905000Y-104100000D02*
X97555000Y-104100000D01*
X107155000Y-104350000D02*
X107155000Y-101810000D01*
X107155000Y-104350000D02*
X104615000Y-104350000D01*
G04 #@! TO.C,J3*
X123695000Y-79400000D02*
X123695000Y-95180000D01*
X123695000Y-95180000D02*
X114345000Y-95180000D01*
X114345000Y-95180000D02*
X114345000Y-79400000D01*
X114345000Y-79400000D02*
X123695000Y-79400000D01*
X114095000Y-79150000D02*
X114095000Y-81690000D01*
X114095000Y-79150000D02*
X116635000Y-79150000D01*
G04 #@! TO.C,R1*
D11*
X119833333Y-99382380D02*
X119500000Y-98906190D01*
X119261904Y-99382380D02*
X119261904Y-98382380D01*
X119642857Y-98382380D01*
X119738095Y-98430000D01*
X119785714Y-98477619D01*
X119833333Y-98572857D01*
X119833333Y-98715714D01*
X119785714Y-98810952D01*
X119738095Y-98858571D01*
X119642857Y-98906190D01*
X119261904Y-98906190D01*
X120785714Y-99382380D02*
X120214285Y-99382380D01*
X120500000Y-99382380D02*
X120500000Y-98382380D01*
X120404761Y-98525238D01*
X120309523Y-98620476D01*
X120214285Y-98668095D01*
G04 #@! TO.C,J2*
X113166666Y-95952380D02*
X113166666Y-96666666D01*
X113119047Y-96809523D01*
X113023809Y-96904761D01*
X112880952Y-96952380D01*
X112785714Y-96952380D01*
X113595238Y-96047619D02*
X113642857Y-96000000D01*
X113738095Y-95952380D01*
X113976190Y-95952380D01*
X114071428Y-96000000D01*
X114119047Y-96047619D01*
X114166666Y-96142857D01*
X114166666Y-96238095D01*
X114119047Y-96380952D01*
X113547619Y-96952380D01*
X114166666Y-96952380D01*
G04 #@! TO.C,J4*
X113416666Y-76452380D02*
X113416666Y-77166666D01*
X113369047Y-77309523D01*
X113273809Y-77404761D01*
X113130952Y-77452380D01*
X113035714Y-77452380D01*
X114321428Y-76785714D02*
X114321428Y-77452380D01*
X114083333Y-76404761D02*
X113845238Y-77119047D01*
X114464285Y-77119047D01*
G04 #@! TO.C,J1*
X108166666Y-101952380D02*
X108166666Y-102666666D01*
X108119047Y-102809523D01*
X108023809Y-102904761D01*
X107880952Y-102952380D01*
X107785714Y-102952380D01*
X109166666Y-102952380D02*
X108595238Y-102952380D01*
X108880952Y-102952380D02*
X108880952Y-101952380D01*
X108785714Y-102095238D01*
X108690476Y-102190476D01*
X108595238Y-102238095D01*
G04 #@! TO.C,J3*
X118166666Y-77702380D02*
X118166666Y-78416666D01*
X118119047Y-78559523D01*
X118023809Y-78654761D01*
X117880952Y-78702380D01*
X117785714Y-78702380D01*
X118547619Y-77702380D02*
X119166666Y-77702380D01*
X118833333Y-78083333D01*
X118976190Y-78083333D01*
X119071428Y-78130952D01*
X119119047Y-78178571D01*
X119166666Y-78273809D01*
X119166666Y-78511904D01*
X119119047Y-78607142D01*
X119071428Y-78654761D01*
X118976190Y-78702380D01*
X118690476Y-78702380D01*
X118595238Y-78654761D01*
X118547619Y-78607142D01*
G04 #@! TD*
M02*
