G04 #@! TF.GenerationSoftware,KiCad,Pcbnew,(5.0.1-3-g963ef8bb5)*
G04 #@! TF.CreationDate,2018-11-27T15:22:05+00:00*
G04 #@! TF.ProjectId,jlink-swd-adapter,6A6C696E6B2D7377642D616461707465,rev?*
G04 #@! TF.SameCoordinates,Original*
G04 #@! TF.FileFunction,Copper,L2,Bot,Signal*
G04 #@! TF.FilePolarity,Positive*
%FSLAX46Y46*%
G04 Gerber Fmt 4.6, Leading zero omitted, Abs format (unit mm)*
G04 Created by KiCad (PCBNEW (5.0.1-3-g963ef8bb5)) date Tuesday, 27 November 2018 at 15:22:05*
%MOMM*%
%LPD*%
G01*
G04 APERTURE LIST*
G04 #@! TA.AperFunction,ComponentPad*
%ADD10R,1.700000X1.700000*%
G04 #@! TD*
G04 #@! TA.AperFunction,ComponentPad*
%ADD11O,1.700000X1.700000*%
G04 #@! TD*
G04 #@! TA.AperFunction,ComponentPad*
%ADD12R,1.727200X1.727200*%
G04 #@! TD*
G04 #@! TA.AperFunction,ComponentPad*
%ADD13O,1.727200X1.727200*%
G04 #@! TD*
G04 #@! TA.AperFunction,Conductor*
%ADD14C,0.250000*%
G04 #@! TD*
G04 APERTURE END LIST*
D10*
G04 #@! TO.P,J2,1*
G04 #@! TO.N,VCC*
X110750000Y-97500000D03*
D11*
G04 #@! TO.P,J2,2*
G04 #@! TO.N,GND*
X110750000Y-94960000D03*
G04 #@! TD*
D10*
G04 #@! TO.P,J4,1*
G04 #@! TO.N,VTREF*
X110750000Y-77250000D03*
D11*
G04 #@! TO.P,J4,2*
G04 #@! TO.N,SWCLK*
X110750000Y-79790000D03*
G04 #@! TO.P,J4,3*
G04 #@! TO.N,GND*
X110750000Y-82330000D03*
G04 #@! TO.P,J4,4*
G04 #@! TO.N,SWDIO*
X110750000Y-84870000D03*
G04 #@! TO.P,J4,5*
G04 #@! TO.N,~RESET*
X110750000Y-87410000D03*
G04 #@! TO.P,J4,6*
G04 #@! TO.N,SWO*
X110750000Y-89950000D03*
G04 #@! TD*
D12*
G04 #@! TO.P,J1,1*
G04 #@! TO.N,VTREF*
X103500000Y-98750000D03*
D13*
G04 #@! TO.P,J1,2*
G04 #@! TO.N,VCC*
X100960000Y-98750000D03*
G04 #@! TO.P,J1,3*
G04 #@! TO.N,Net-(J1-Pad3)*
X103500000Y-96210000D03*
G04 #@! TO.P,J1,4*
G04 #@! TO.N,GND*
X100960000Y-96210000D03*
G04 #@! TO.P,J1,5*
G04 #@! TO.N,Net-(J1-Pad5)*
X103500000Y-93670000D03*
G04 #@! TO.P,J1,6*
G04 #@! TO.N,GND*
X100960000Y-93670000D03*
G04 #@! TO.P,J1,7*
G04 #@! TO.N,SWDIO*
X103500000Y-91130000D03*
G04 #@! TO.P,J1,8*
G04 #@! TO.N,GND*
X100960000Y-91130000D03*
G04 #@! TO.P,J1,9*
G04 #@! TO.N,SWCLK*
X103500000Y-88590000D03*
G04 #@! TO.P,J1,10*
G04 #@! TO.N,GND*
X100960000Y-88590000D03*
G04 #@! TO.P,J1,11*
G04 #@! TO.N,Net-(J1-Pad11)*
X103500000Y-86050000D03*
G04 #@! TO.P,J1,12*
G04 #@! TO.N,GND*
X100960000Y-86050000D03*
G04 #@! TO.P,J1,13*
G04 #@! TO.N,SWO*
X103500000Y-83510000D03*
G04 #@! TO.P,J1,14*
G04 #@! TO.N,GND*
X100960000Y-83510000D03*
G04 #@! TO.P,J1,15*
G04 #@! TO.N,~RESET*
X103500000Y-80970000D03*
G04 #@! TO.P,J1,16*
G04 #@! TO.N,GND*
X100960000Y-80970000D03*
G04 #@! TO.P,J1,17*
G04 #@! TO.N,Net-(J1-Pad17)*
X103500000Y-78430000D03*
G04 #@! TO.P,J1,18*
G04 #@! TO.N,GND*
X100960000Y-78430000D03*
G04 #@! TO.P,J1,19*
G04 #@! TO.N,Net-(J1-Pad19)*
X103500000Y-75890000D03*
G04 #@! TO.P,J1,20*
G04 #@! TO.N,GND*
X100960000Y-75890000D03*
G04 #@! TD*
D12*
G04 #@! TO.P,J3,1*
G04 #@! TO.N,VTREF*
X117750000Y-84750000D03*
D13*
G04 #@! TO.P,J3,2*
G04 #@! TO.N,SWDIO*
X120290000Y-84750000D03*
G04 #@! TO.P,J3,3*
G04 #@! TO.N,~RESET*
X117750000Y-87290000D03*
G04 #@! TO.P,J3,4*
G04 #@! TO.N,SWCLK*
X120290000Y-87290000D03*
G04 #@! TO.P,J3,5*
G04 #@! TO.N,GND*
X117750000Y-89830000D03*
G04 #@! TO.P,J3,6*
G04 #@! TO.N,SWO*
X120290000Y-89830000D03*
G04 #@! TD*
D14*
G04 #@! TO.N,SWDIO*
X109760000Y-84870000D02*
X110750000Y-84870000D01*
X103500000Y-91130000D02*
X109760000Y-84870000D01*
X111981399Y-86101399D02*
X118938601Y-86101399D01*
X119426401Y-85613599D02*
X120290000Y-84750000D01*
X118938601Y-86101399D02*
X119426401Y-85613599D01*
X110750000Y-84870000D02*
X111981399Y-86101399D01*
G04 #@! TO.N,SWCLK*
X109900001Y-80639999D02*
X110750000Y-79790000D01*
X104688601Y-85851399D02*
X109900001Y-80639999D01*
X104688601Y-87401399D02*
X104688601Y-85851399D01*
X103500000Y-88590000D02*
X104688601Y-87401399D01*
X121153599Y-86426401D02*
X120290000Y-87290000D01*
X117089130Y-79790000D02*
X121478601Y-84179471D01*
X121478601Y-86101399D02*
X121153599Y-86426401D01*
X121478601Y-84179471D02*
X121478601Y-86101399D01*
X110750000Y-79790000D02*
X117089130Y-79790000D01*
G04 #@! TD*
M02*
