G04 #@! TF.GenerationSoftware,KiCad,Pcbnew,(5.0.1-3-g963ef8bb5)*
G04 #@! TF.CreationDate,2018-11-27T15:22:05+00:00*
G04 #@! TF.ProjectId,jlink-swd-adapter,6A6C696E6B2D7377642D616461707465,rev?*
G04 #@! TF.SameCoordinates,Original*
G04 #@! TF.FileFunction,Soldermask,Bot*
G04 #@! TF.FilePolarity,Negative*
%FSLAX46Y46*%
G04 Gerber Fmt 4.6, Leading zero omitted, Abs format (unit mm)*
G04 Created by KiCad (PCBNEW (5.0.1-3-g963ef8bb5)) date Tuesday, 27 November 2018 at 15:22:05*
%MOMM*%
%LPD*%
G01*
G04 APERTURE LIST*
%ADD10C,0.100000*%
G04 APERTURE END LIST*
D10*
G36*
X104414600Y-99664600D02*
X102585400Y-99664600D01*
X102585400Y-97835400D01*
X104414600Y-97835400D01*
X104414600Y-99664600D01*
X104414600Y-99664600D01*
G37*
G36*
X101139294Y-97848633D02*
X101311694Y-97900931D01*
X101311696Y-97900932D01*
X101470583Y-97985859D01*
X101470585Y-97985860D01*
X101470584Y-97985860D01*
X101609849Y-98100151D01*
X101724140Y-98239416D01*
X101809069Y-98398306D01*
X101861367Y-98570706D01*
X101879025Y-98750000D01*
X101861367Y-98929294D01*
X101809069Y-99101694D01*
X101809068Y-99101696D01*
X101724141Y-99260583D01*
X101609849Y-99399849D01*
X101470583Y-99514141D01*
X101311696Y-99599068D01*
X101311694Y-99599069D01*
X101139294Y-99651367D01*
X101004931Y-99664600D01*
X100915069Y-99664600D01*
X100780706Y-99651367D01*
X100608306Y-99599069D01*
X100608304Y-99599068D01*
X100449417Y-99514141D01*
X100310151Y-99399849D01*
X100195859Y-99260583D01*
X100110932Y-99101696D01*
X100110931Y-99101694D01*
X100058633Y-98929294D01*
X100040975Y-98750000D01*
X100058633Y-98570706D01*
X100110931Y-98398306D01*
X100195860Y-98239416D01*
X100310151Y-98100151D01*
X100449416Y-97985860D01*
X100449415Y-97985860D01*
X100449417Y-97985859D01*
X100608304Y-97900932D01*
X100608306Y-97900931D01*
X100780706Y-97848633D01*
X100915069Y-97835400D01*
X101004931Y-97835400D01*
X101139294Y-97848633D01*
X101139294Y-97848633D01*
G37*
G36*
X111651000Y-98401000D02*
X109849000Y-98401000D01*
X109849000Y-96599000D01*
X111651000Y-96599000D01*
X111651000Y-98401000D01*
X111651000Y-98401000D01*
G37*
G36*
X101139294Y-95308633D02*
X101311694Y-95360931D01*
X101311696Y-95360932D01*
X101470583Y-95445859D01*
X101609849Y-95560151D01*
X101724141Y-95699417D01*
X101803541Y-95847963D01*
X101809069Y-95858306D01*
X101861367Y-96030706D01*
X101879025Y-96210000D01*
X101861367Y-96389294D01*
X101809069Y-96561694D01*
X101809068Y-96561696D01*
X101724141Y-96720583D01*
X101609849Y-96859849D01*
X101470583Y-96974141D01*
X101311696Y-97059068D01*
X101311694Y-97059069D01*
X101139294Y-97111367D01*
X101004931Y-97124600D01*
X100915069Y-97124600D01*
X100780706Y-97111367D01*
X100608306Y-97059069D01*
X100608304Y-97059068D01*
X100449417Y-96974141D01*
X100310151Y-96859849D01*
X100195859Y-96720583D01*
X100110932Y-96561696D01*
X100110931Y-96561694D01*
X100058633Y-96389294D01*
X100040975Y-96210000D01*
X100058633Y-96030706D01*
X100110931Y-95858306D01*
X100116459Y-95847963D01*
X100195859Y-95699417D01*
X100310151Y-95560151D01*
X100449417Y-95445859D01*
X100608304Y-95360932D01*
X100608306Y-95360931D01*
X100780706Y-95308633D01*
X100915069Y-95295400D01*
X101004931Y-95295400D01*
X101139294Y-95308633D01*
X101139294Y-95308633D01*
G37*
G36*
X103679294Y-95308633D02*
X103851694Y-95360931D01*
X103851696Y-95360932D01*
X104010583Y-95445859D01*
X104149849Y-95560151D01*
X104264141Y-95699417D01*
X104343541Y-95847963D01*
X104349069Y-95858306D01*
X104401367Y-96030706D01*
X104419025Y-96210000D01*
X104401367Y-96389294D01*
X104349069Y-96561694D01*
X104349068Y-96561696D01*
X104264141Y-96720583D01*
X104149849Y-96859849D01*
X104010583Y-96974141D01*
X103851696Y-97059068D01*
X103851694Y-97059069D01*
X103679294Y-97111367D01*
X103544931Y-97124600D01*
X103455069Y-97124600D01*
X103320706Y-97111367D01*
X103148306Y-97059069D01*
X103148304Y-97059068D01*
X102989417Y-96974141D01*
X102850151Y-96859849D01*
X102735859Y-96720583D01*
X102650932Y-96561696D01*
X102650931Y-96561694D01*
X102598633Y-96389294D01*
X102580975Y-96210000D01*
X102598633Y-96030706D01*
X102650931Y-95858306D01*
X102656459Y-95847963D01*
X102735859Y-95699417D01*
X102850151Y-95560151D01*
X102989417Y-95445859D01*
X103148304Y-95360932D01*
X103148306Y-95360931D01*
X103320706Y-95308633D01*
X103455069Y-95295400D01*
X103544931Y-95295400D01*
X103679294Y-95308633D01*
X103679294Y-95308633D01*
G37*
G36*
X110860443Y-94065519D02*
X110926627Y-94072037D01*
X111039853Y-94106384D01*
X111096467Y-94123557D01*
X111203155Y-94180584D01*
X111252991Y-94207222D01*
X111288729Y-94236552D01*
X111390186Y-94319814D01*
X111473448Y-94421271D01*
X111502778Y-94457009D01*
X111502779Y-94457011D01*
X111586443Y-94613533D01*
X111586443Y-94613534D01*
X111637963Y-94783373D01*
X111655359Y-94960000D01*
X111637963Y-95136627D01*
X111603616Y-95249853D01*
X111586443Y-95306467D01*
X111557331Y-95360931D01*
X111502778Y-95462991D01*
X111473448Y-95498729D01*
X111390186Y-95600186D01*
X111288729Y-95683448D01*
X111252991Y-95712778D01*
X111252989Y-95712779D01*
X111096467Y-95796443D01*
X111039853Y-95813616D01*
X110926627Y-95847963D01*
X110860442Y-95854482D01*
X110794260Y-95861000D01*
X110705740Y-95861000D01*
X110639558Y-95854482D01*
X110573373Y-95847963D01*
X110460147Y-95813616D01*
X110403533Y-95796443D01*
X110247011Y-95712779D01*
X110247009Y-95712778D01*
X110211271Y-95683448D01*
X110109814Y-95600186D01*
X110026552Y-95498729D01*
X109997222Y-95462991D01*
X109942669Y-95360931D01*
X109913557Y-95306467D01*
X109896384Y-95249853D01*
X109862037Y-95136627D01*
X109844641Y-94960000D01*
X109862037Y-94783373D01*
X109913557Y-94613534D01*
X109913557Y-94613533D01*
X109997221Y-94457011D01*
X109997222Y-94457009D01*
X110026552Y-94421271D01*
X110109814Y-94319814D01*
X110211271Y-94236552D01*
X110247009Y-94207222D01*
X110296845Y-94180584D01*
X110403533Y-94123557D01*
X110460147Y-94106384D01*
X110573373Y-94072037D01*
X110639557Y-94065519D01*
X110705740Y-94059000D01*
X110794260Y-94059000D01*
X110860443Y-94065519D01*
X110860443Y-94065519D01*
G37*
G36*
X103679294Y-92768633D02*
X103851694Y-92820931D01*
X103851696Y-92820932D01*
X104010583Y-92905859D01*
X104010585Y-92905860D01*
X104010584Y-92905860D01*
X104149849Y-93020151D01*
X104264140Y-93159416D01*
X104349069Y-93318306D01*
X104401367Y-93490706D01*
X104419025Y-93670000D01*
X104401367Y-93849294D01*
X104349069Y-94021694D01*
X104349068Y-94021696D01*
X104264141Y-94180583D01*
X104149849Y-94319849D01*
X104010583Y-94434141D01*
X103967796Y-94457011D01*
X103851694Y-94519069D01*
X103679294Y-94571367D01*
X103544931Y-94584600D01*
X103455069Y-94584600D01*
X103320706Y-94571367D01*
X103148306Y-94519069D01*
X103032204Y-94457011D01*
X102989417Y-94434141D01*
X102850151Y-94319849D01*
X102735859Y-94180583D01*
X102650932Y-94021696D01*
X102650931Y-94021694D01*
X102598633Y-93849294D01*
X102580975Y-93670000D01*
X102598633Y-93490706D01*
X102650931Y-93318306D01*
X102735860Y-93159416D01*
X102850151Y-93020151D01*
X102989416Y-92905860D01*
X102989415Y-92905860D01*
X102989417Y-92905859D01*
X103148304Y-92820932D01*
X103148306Y-92820931D01*
X103320706Y-92768633D01*
X103455069Y-92755400D01*
X103544931Y-92755400D01*
X103679294Y-92768633D01*
X103679294Y-92768633D01*
G37*
G36*
X101139294Y-92768633D02*
X101311694Y-92820931D01*
X101311696Y-92820932D01*
X101470583Y-92905859D01*
X101470585Y-92905860D01*
X101470584Y-92905860D01*
X101609849Y-93020151D01*
X101724140Y-93159416D01*
X101809069Y-93318306D01*
X101861367Y-93490706D01*
X101879025Y-93670000D01*
X101861367Y-93849294D01*
X101809069Y-94021694D01*
X101809068Y-94021696D01*
X101724141Y-94180583D01*
X101609849Y-94319849D01*
X101470583Y-94434141D01*
X101427796Y-94457011D01*
X101311694Y-94519069D01*
X101139294Y-94571367D01*
X101004931Y-94584600D01*
X100915069Y-94584600D01*
X100780706Y-94571367D01*
X100608306Y-94519069D01*
X100492204Y-94457011D01*
X100449417Y-94434141D01*
X100310151Y-94319849D01*
X100195859Y-94180583D01*
X100110932Y-94021696D01*
X100110931Y-94021694D01*
X100058633Y-93849294D01*
X100040975Y-93670000D01*
X100058633Y-93490706D01*
X100110931Y-93318306D01*
X100195860Y-93159416D01*
X100310151Y-93020151D01*
X100449416Y-92905860D01*
X100449415Y-92905860D01*
X100449417Y-92905859D01*
X100608304Y-92820932D01*
X100608306Y-92820931D01*
X100780706Y-92768633D01*
X100915069Y-92755400D01*
X101004931Y-92755400D01*
X101139294Y-92768633D01*
X101139294Y-92768633D01*
G37*
G36*
X103679294Y-90228633D02*
X103851694Y-90280931D01*
X103851696Y-90280932D01*
X104010583Y-90365859D01*
X104149849Y-90480151D01*
X104264141Y-90619417D01*
X104331053Y-90744600D01*
X104349069Y-90778306D01*
X104401367Y-90950706D01*
X104419025Y-91130000D01*
X104401367Y-91309294D01*
X104349069Y-91481694D01*
X104349068Y-91481696D01*
X104264141Y-91640583D01*
X104149849Y-91779849D01*
X104010583Y-91894141D01*
X103851696Y-91979068D01*
X103851694Y-91979069D01*
X103679294Y-92031367D01*
X103544931Y-92044600D01*
X103455069Y-92044600D01*
X103320706Y-92031367D01*
X103148306Y-91979069D01*
X103148304Y-91979068D01*
X102989417Y-91894141D01*
X102850151Y-91779849D01*
X102735859Y-91640583D01*
X102650932Y-91481696D01*
X102650931Y-91481694D01*
X102598633Y-91309294D01*
X102580975Y-91130000D01*
X102598633Y-90950706D01*
X102650931Y-90778306D01*
X102668947Y-90744600D01*
X102735859Y-90619417D01*
X102850151Y-90480151D01*
X102989417Y-90365859D01*
X103148304Y-90280932D01*
X103148306Y-90280931D01*
X103320706Y-90228633D01*
X103455069Y-90215400D01*
X103544931Y-90215400D01*
X103679294Y-90228633D01*
X103679294Y-90228633D01*
G37*
G36*
X101139294Y-90228633D02*
X101311694Y-90280931D01*
X101311696Y-90280932D01*
X101470583Y-90365859D01*
X101609849Y-90480151D01*
X101724141Y-90619417D01*
X101791053Y-90744600D01*
X101809069Y-90778306D01*
X101861367Y-90950706D01*
X101879025Y-91130000D01*
X101861367Y-91309294D01*
X101809069Y-91481694D01*
X101809068Y-91481696D01*
X101724141Y-91640583D01*
X101609849Y-91779849D01*
X101470583Y-91894141D01*
X101311696Y-91979068D01*
X101311694Y-91979069D01*
X101139294Y-92031367D01*
X101004931Y-92044600D01*
X100915069Y-92044600D01*
X100780706Y-92031367D01*
X100608306Y-91979069D01*
X100608304Y-91979068D01*
X100449417Y-91894141D01*
X100310151Y-91779849D01*
X100195859Y-91640583D01*
X100110932Y-91481696D01*
X100110931Y-91481694D01*
X100058633Y-91309294D01*
X100040975Y-91130000D01*
X100058633Y-90950706D01*
X100110931Y-90778306D01*
X100128947Y-90744600D01*
X100195859Y-90619417D01*
X100310151Y-90480151D01*
X100449417Y-90365859D01*
X100608304Y-90280932D01*
X100608306Y-90280931D01*
X100780706Y-90228633D01*
X100915069Y-90215400D01*
X101004931Y-90215400D01*
X101139294Y-90228633D01*
X101139294Y-90228633D01*
G37*
G36*
X110860443Y-89055519D02*
X110926627Y-89062037D01*
X111039853Y-89096384D01*
X111096467Y-89113557D01*
X111221054Y-89180151D01*
X111252991Y-89197222D01*
X111288729Y-89226552D01*
X111390186Y-89309814D01*
X111473448Y-89411271D01*
X111502778Y-89447009D01*
X111502779Y-89447011D01*
X111586443Y-89603533D01*
X111586443Y-89603534D01*
X111637963Y-89773373D01*
X111655359Y-89950000D01*
X111637963Y-90126627D01*
X111621258Y-90181696D01*
X111586443Y-90296467D01*
X111549351Y-90365860D01*
X111502778Y-90452991D01*
X111480736Y-90479849D01*
X111390186Y-90590186D01*
X111288729Y-90673448D01*
X111252991Y-90702778D01*
X111252989Y-90702779D01*
X111096467Y-90786443D01*
X111039853Y-90803616D01*
X110926627Y-90837963D01*
X110860443Y-90844481D01*
X110794260Y-90851000D01*
X110705740Y-90851000D01*
X110639557Y-90844481D01*
X110573373Y-90837963D01*
X110460147Y-90803616D01*
X110403533Y-90786443D01*
X110247011Y-90702779D01*
X110247009Y-90702778D01*
X110211271Y-90673448D01*
X110109814Y-90590186D01*
X110019264Y-90479849D01*
X109997222Y-90452991D01*
X109950649Y-90365860D01*
X109913557Y-90296467D01*
X109878742Y-90181696D01*
X109862037Y-90126627D01*
X109844641Y-89950000D01*
X109862037Y-89773373D01*
X109913557Y-89603534D01*
X109913557Y-89603533D01*
X109997221Y-89447011D01*
X109997222Y-89447009D01*
X110026552Y-89411271D01*
X110109814Y-89309814D01*
X110211271Y-89226552D01*
X110247009Y-89197222D01*
X110278946Y-89180151D01*
X110403533Y-89113557D01*
X110460147Y-89096384D01*
X110573373Y-89062037D01*
X110639557Y-89055519D01*
X110705740Y-89049000D01*
X110794260Y-89049000D01*
X110860443Y-89055519D01*
X110860443Y-89055519D01*
G37*
G36*
X120469294Y-88928633D02*
X120641694Y-88980931D01*
X120641696Y-88980932D01*
X120800583Y-89065859D01*
X120939849Y-89180151D01*
X121054141Y-89319417D01*
X121139068Y-89478304D01*
X121139069Y-89478306D01*
X121191367Y-89650706D01*
X121209025Y-89830000D01*
X121191367Y-90009294D01*
X121139069Y-90181694D01*
X121139068Y-90181696D01*
X121054141Y-90340583D01*
X120939849Y-90479849D01*
X120800583Y-90594141D01*
X120641696Y-90679068D01*
X120641694Y-90679069D01*
X120469294Y-90731367D01*
X120334931Y-90744600D01*
X120245069Y-90744600D01*
X120110706Y-90731367D01*
X119938306Y-90679069D01*
X119938304Y-90679068D01*
X119779417Y-90594141D01*
X119640151Y-90479849D01*
X119525859Y-90340583D01*
X119440932Y-90181696D01*
X119440931Y-90181694D01*
X119388633Y-90009294D01*
X119370975Y-89830000D01*
X119388633Y-89650706D01*
X119440931Y-89478306D01*
X119440932Y-89478304D01*
X119525859Y-89319417D01*
X119640151Y-89180151D01*
X119779417Y-89065859D01*
X119938304Y-88980932D01*
X119938306Y-88980931D01*
X120110706Y-88928633D01*
X120245069Y-88915400D01*
X120334931Y-88915400D01*
X120469294Y-88928633D01*
X120469294Y-88928633D01*
G37*
G36*
X117929294Y-88928633D02*
X118101694Y-88980931D01*
X118101696Y-88980932D01*
X118260583Y-89065859D01*
X118399849Y-89180151D01*
X118514141Y-89319417D01*
X118599068Y-89478304D01*
X118599069Y-89478306D01*
X118651367Y-89650706D01*
X118669025Y-89830000D01*
X118651367Y-90009294D01*
X118599069Y-90181694D01*
X118599068Y-90181696D01*
X118514141Y-90340583D01*
X118399849Y-90479849D01*
X118260583Y-90594141D01*
X118101696Y-90679068D01*
X118101694Y-90679069D01*
X117929294Y-90731367D01*
X117794931Y-90744600D01*
X117705069Y-90744600D01*
X117570706Y-90731367D01*
X117398306Y-90679069D01*
X117398304Y-90679068D01*
X117239417Y-90594141D01*
X117100151Y-90479849D01*
X116985859Y-90340583D01*
X116900932Y-90181696D01*
X116900931Y-90181694D01*
X116848633Y-90009294D01*
X116830975Y-89830000D01*
X116848633Y-89650706D01*
X116900931Y-89478306D01*
X116900932Y-89478304D01*
X116985859Y-89319417D01*
X117100151Y-89180151D01*
X117239417Y-89065859D01*
X117398304Y-88980932D01*
X117398306Y-88980931D01*
X117570706Y-88928633D01*
X117705069Y-88915400D01*
X117794931Y-88915400D01*
X117929294Y-88928633D01*
X117929294Y-88928633D01*
G37*
G36*
X101139294Y-87688633D02*
X101311694Y-87740931D01*
X101311696Y-87740932D01*
X101470583Y-87825859D01*
X101609849Y-87940151D01*
X101724141Y-88079417D01*
X101791053Y-88204600D01*
X101809069Y-88238306D01*
X101861367Y-88410706D01*
X101879025Y-88590000D01*
X101861367Y-88769294D01*
X101809069Y-88941694D01*
X101809068Y-88941696D01*
X101724141Y-89100583D01*
X101609849Y-89239849D01*
X101470583Y-89354141D01*
X101311696Y-89439068D01*
X101311694Y-89439069D01*
X101139294Y-89491367D01*
X101004931Y-89504600D01*
X100915069Y-89504600D01*
X100780706Y-89491367D01*
X100608306Y-89439069D01*
X100608304Y-89439068D01*
X100449417Y-89354141D01*
X100310151Y-89239849D01*
X100195859Y-89100583D01*
X100110932Y-88941696D01*
X100110931Y-88941694D01*
X100058633Y-88769294D01*
X100040975Y-88590000D01*
X100058633Y-88410706D01*
X100110931Y-88238306D01*
X100128947Y-88204600D01*
X100195859Y-88079417D01*
X100310151Y-87940151D01*
X100449417Y-87825859D01*
X100608304Y-87740932D01*
X100608306Y-87740931D01*
X100780706Y-87688633D01*
X100915069Y-87675400D01*
X101004931Y-87675400D01*
X101139294Y-87688633D01*
X101139294Y-87688633D01*
G37*
G36*
X103679294Y-87688633D02*
X103851694Y-87740931D01*
X103851696Y-87740932D01*
X104010583Y-87825859D01*
X104149849Y-87940151D01*
X104264141Y-88079417D01*
X104331053Y-88204600D01*
X104349069Y-88238306D01*
X104401367Y-88410706D01*
X104419025Y-88590000D01*
X104401367Y-88769294D01*
X104349069Y-88941694D01*
X104349068Y-88941696D01*
X104264141Y-89100583D01*
X104149849Y-89239849D01*
X104010583Y-89354141D01*
X103851696Y-89439068D01*
X103851694Y-89439069D01*
X103679294Y-89491367D01*
X103544931Y-89504600D01*
X103455069Y-89504600D01*
X103320706Y-89491367D01*
X103148306Y-89439069D01*
X103148304Y-89439068D01*
X102989417Y-89354141D01*
X102850151Y-89239849D01*
X102735859Y-89100583D01*
X102650932Y-88941696D01*
X102650931Y-88941694D01*
X102598633Y-88769294D01*
X102580975Y-88590000D01*
X102598633Y-88410706D01*
X102650931Y-88238306D01*
X102668947Y-88204600D01*
X102735859Y-88079417D01*
X102850151Y-87940151D01*
X102989417Y-87825859D01*
X103148304Y-87740932D01*
X103148306Y-87740931D01*
X103320706Y-87688633D01*
X103455069Y-87675400D01*
X103544931Y-87675400D01*
X103679294Y-87688633D01*
X103679294Y-87688633D01*
G37*
G36*
X110860442Y-86515518D02*
X110926627Y-86522037D01*
X111039853Y-86556384D01*
X111096467Y-86573557D01*
X111221054Y-86640151D01*
X111252991Y-86657222D01*
X111288729Y-86686552D01*
X111390186Y-86769814D01*
X111473448Y-86871271D01*
X111502778Y-86907009D01*
X111502779Y-86907011D01*
X111586443Y-87063533D01*
X111586443Y-87063534D01*
X111637963Y-87233373D01*
X111655359Y-87410000D01*
X111637963Y-87586627D01*
X111621258Y-87641696D01*
X111586443Y-87756467D01*
X111549351Y-87825860D01*
X111502778Y-87912991D01*
X111480736Y-87939849D01*
X111390186Y-88050186D01*
X111288729Y-88133448D01*
X111252991Y-88162778D01*
X111252989Y-88162779D01*
X111096467Y-88246443D01*
X111039853Y-88263616D01*
X110926627Y-88297963D01*
X110860442Y-88304482D01*
X110794260Y-88311000D01*
X110705740Y-88311000D01*
X110639558Y-88304482D01*
X110573373Y-88297963D01*
X110460147Y-88263616D01*
X110403533Y-88246443D01*
X110247011Y-88162779D01*
X110247009Y-88162778D01*
X110211271Y-88133448D01*
X110109814Y-88050186D01*
X110019264Y-87939849D01*
X109997222Y-87912991D01*
X109950649Y-87825860D01*
X109913557Y-87756467D01*
X109878742Y-87641696D01*
X109862037Y-87586627D01*
X109844641Y-87410000D01*
X109862037Y-87233373D01*
X109913557Y-87063534D01*
X109913557Y-87063533D01*
X109997221Y-86907011D01*
X109997222Y-86907009D01*
X110026552Y-86871271D01*
X110109814Y-86769814D01*
X110211271Y-86686552D01*
X110247009Y-86657222D01*
X110278946Y-86640151D01*
X110403533Y-86573557D01*
X110460147Y-86556384D01*
X110573373Y-86522037D01*
X110639558Y-86515518D01*
X110705740Y-86509000D01*
X110794260Y-86509000D01*
X110860442Y-86515518D01*
X110860442Y-86515518D01*
G37*
G36*
X120469294Y-86388633D02*
X120641694Y-86440931D01*
X120641696Y-86440932D01*
X120800583Y-86525859D01*
X120939849Y-86640151D01*
X121054141Y-86779417D01*
X121139068Y-86938304D01*
X121139069Y-86938306D01*
X121191367Y-87110706D01*
X121209025Y-87290000D01*
X121191367Y-87469294D01*
X121139069Y-87641694D01*
X121139068Y-87641696D01*
X121054141Y-87800583D01*
X120939849Y-87939849D01*
X120800583Y-88054141D01*
X120641696Y-88139068D01*
X120641694Y-88139069D01*
X120469294Y-88191367D01*
X120334931Y-88204600D01*
X120245069Y-88204600D01*
X120110706Y-88191367D01*
X119938306Y-88139069D01*
X119938304Y-88139068D01*
X119779417Y-88054141D01*
X119640151Y-87939849D01*
X119525859Y-87800583D01*
X119440932Y-87641696D01*
X119440931Y-87641694D01*
X119388633Y-87469294D01*
X119370975Y-87290000D01*
X119388633Y-87110706D01*
X119440931Y-86938306D01*
X119440932Y-86938304D01*
X119525859Y-86779417D01*
X119640151Y-86640151D01*
X119779417Y-86525859D01*
X119938304Y-86440932D01*
X119938306Y-86440931D01*
X120110706Y-86388633D01*
X120245069Y-86375400D01*
X120334931Y-86375400D01*
X120469294Y-86388633D01*
X120469294Y-86388633D01*
G37*
G36*
X117929294Y-86388633D02*
X118101694Y-86440931D01*
X118101696Y-86440932D01*
X118260583Y-86525859D01*
X118399849Y-86640151D01*
X118514141Y-86779417D01*
X118599068Y-86938304D01*
X118599069Y-86938306D01*
X118651367Y-87110706D01*
X118669025Y-87290000D01*
X118651367Y-87469294D01*
X118599069Y-87641694D01*
X118599068Y-87641696D01*
X118514141Y-87800583D01*
X118399849Y-87939849D01*
X118260583Y-88054141D01*
X118101696Y-88139068D01*
X118101694Y-88139069D01*
X117929294Y-88191367D01*
X117794931Y-88204600D01*
X117705069Y-88204600D01*
X117570706Y-88191367D01*
X117398306Y-88139069D01*
X117398304Y-88139068D01*
X117239417Y-88054141D01*
X117100151Y-87939849D01*
X116985859Y-87800583D01*
X116900932Y-87641696D01*
X116900931Y-87641694D01*
X116848633Y-87469294D01*
X116830975Y-87290000D01*
X116848633Y-87110706D01*
X116900931Y-86938306D01*
X116900932Y-86938304D01*
X116985859Y-86779417D01*
X117100151Y-86640151D01*
X117239417Y-86525859D01*
X117398304Y-86440932D01*
X117398306Y-86440931D01*
X117570706Y-86388633D01*
X117705069Y-86375400D01*
X117794931Y-86375400D01*
X117929294Y-86388633D01*
X117929294Y-86388633D01*
G37*
G36*
X101139294Y-85148633D02*
X101311694Y-85200931D01*
X101311696Y-85200932D01*
X101470583Y-85285859D01*
X101609849Y-85400151D01*
X101724141Y-85539417D01*
X101791053Y-85664600D01*
X101809069Y-85698306D01*
X101861367Y-85870706D01*
X101879025Y-86050000D01*
X101861367Y-86229294D01*
X101809069Y-86401694D01*
X101809068Y-86401696D01*
X101724141Y-86560583D01*
X101609849Y-86699849D01*
X101470583Y-86814141D01*
X101311696Y-86899068D01*
X101311694Y-86899069D01*
X101139294Y-86951367D01*
X101004931Y-86964600D01*
X100915069Y-86964600D01*
X100780706Y-86951367D01*
X100608306Y-86899069D01*
X100608304Y-86899068D01*
X100449417Y-86814141D01*
X100310151Y-86699849D01*
X100195859Y-86560583D01*
X100110932Y-86401696D01*
X100110931Y-86401694D01*
X100058633Y-86229294D01*
X100040975Y-86050000D01*
X100058633Y-85870706D01*
X100110931Y-85698306D01*
X100128947Y-85664600D01*
X100195859Y-85539417D01*
X100310151Y-85400151D01*
X100449417Y-85285859D01*
X100608304Y-85200932D01*
X100608306Y-85200931D01*
X100780706Y-85148633D01*
X100915069Y-85135400D01*
X101004931Y-85135400D01*
X101139294Y-85148633D01*
X101139294Y-85148633D01*
G37*
G36*
X103679294Y-85148633D02*
X103851694Y-85200931D01*
X103851696Y-85200932D01*
X104010583Y-85285859D01*
X104149849Y-85400151D01*
X104264141Y-85539417D01*
X104331053Y-85664600D01*
X104349069Y-85698306D01*
X104401367Y-85870706D01*
X104419025Y-86050000D01*
X104401367Y-86229294D01*
X104349069Y-86401694D01*
X104349068Y-86401696D01*
X104264141Y-86560583D01*
X104149849Y-86699849D01*
X104010583Y-86814141D01*
X103851696Y-86899068D01*
X103851694Y-86899069D01*
X103679294Y-86951367D01*
X103544931Y-86964600D01*
X103455069Y-86964600D01*
X103320706Y-86951367D01*
X103148306Y-86899069D01*
X103148304Y-86899068D01*
X102989417Y-86814141D01*
X102850151Y-86699849D01*
X102735859Y-86560583D01*
X102650932Y-86401696D01*
X102650931Y-86401694D01*
X102598633Y-86229294D01*
X102580975Y-86050000D01*
X102598633Y-85870706D01*
X102650931Y-85698306D01*
X102668947Y-85664600D01*
X102735859Y-85539417D01*
X102850151Y-85400151D01*
X102989417Y-85285859D01*
X103148304Y-85200932D01*
X103148306Y-85200931D01*
X103320706Y-85148633D01*
X103455069Y-85135400D01*
X103544931Y-85135400D01*
X103679294Y-85148633D01*
X103679294Y-85148633D01*
G37*
G36*
X110860442Y-83975518D02*
X110926627Y-83982037D01*
X111039853Y-84016384D01*
X111096467Y-84033557D01*
X111221054Y-84100151D01*
X111252991Y-84117222D01*
X111288729Y-84146552D01*
X111390186Y-84229814D01*
X111473448Y-84331271D01*
X111502778Y-84367009D01*
X111502779Y-84367011D01*
X111586443Y-84523533D01*
X111586443Y-84523534D01*
X111637963Y-84693373D01*
X111655359Y-84870000D01*
X111637963Y-85046627D01*
X111621258Y-85101696D01*
X111586443Y-85216467D01*
X111549351Y-85285860D01*
X111502778Y-85372991D01*
X111480736Y-85399849D01*
X111390186Y-85510186D01*
X111288729Y-85593448D01*
X111252991Y-85622778D01*
X111252989Y-85622779D01*
X111096467Y-85706443D01*
X111039853Y-85723616D01*
X110926627Y-85757963D01*
X110860442Y-85764482D01*
X110794260Y-85771000D01*
X110705740Y-85771000D01*
X110639558Y-85764482D01*
X110573373Y-85757963D01*
X110460147Y-85723616D01*
X110403533Y-85706443D01*
X110247011Y-85622779D01*
X110247009Y-85622778D01*
X110211271Y-85593448D01*
X110109814Y-85510186D01*
X110019264Y-85399849D01*
X109997222Y-85372991D01*
X109950649Y-85285860D01*
X109913557Y-85216467D01*
X109878742Y-85101696D01*
X109862037Y-85046627D01*
X109844641Y-84870000D01*
X109862037Y-84693373D01*
X109913557Y-84523534D01*
X109913557Y-84523533D01*
X109997221Y-84367011D01*
X109997222Y-84367009D01*
X110026552Y-84331271D01*
X110109814Y-84229814D01*
X110211271Y-84146552D01*
X110247009Y-84117222D01*
X110278946Y-84100151D01*
X110403533Y-84033557D01*
X110460147Y-84016384D01*
X110573373Y-83982037D01*
X110639558Y-83975518D01*
X110705740Y-83969000D01*
X110794260Y-83969000D01*
X110860442Y-83975518D01*
X110860442Y-83975518D01*
G37*
G36*
X120469294Y-83848633D02*
X120641694Y-83900931D01*
X120641696Y-83900932D01*
X120800583Y-83985859D01*
X120939849Y-84100151D01*
X121054141Y-84239417D01*
X121139068Y-84398304D01*
X121139069Y-84398306D01*
X121191367Y-84570706D01*
X121209025Y-84750000D01*
X121191367Y-84929294D01*
X121139069Y-85101694D01*
X121139068Y-85101696D01*
X121054141Y-85260583D01*
X120939849Y-85399849D01*
X120800583Y-85514141D01*
X120641696Y-85599068D01*
X120641694Y-85599069D01*
X120469294Y-85651367D01*
X120334931Y-85664600D01*
X120245069Y-85664600D01*
X120110706Y-85651367D01*
X119938306Y-85599069D01*
X119938304Y-85599068D01*
X119779417Y-85514141D01*
X119640151Y-85399849D01*
X119525859Y-85260583D01*
X119440932Y-85101696D01*
X119440931Y-85101694D01*
X119388633Y-84929294D01*
X119370975Y-84750000D01*
X119388633Y-84570706D01*
X119440931Y-84398306D01*
X119440932Y-84398304D01*
X119525859Y-84239417D01*
X119640151Y-84100151D01*
X119779417Y-83985859D01*
X119938304Y-83900932D01*
X119938306Y-83900931D01*
X120110706Y-83848633D01*
X120245069Y-83835400D01*
X120334931Y-83835400D01*
X120469294Y-83848633D01*
X120469294Y-83848633D01*
G37*
G36*
X118664600Y-85664600D02*
X116835400Y-85664600D01*
X116835400Y-83835400D01*
X118664600Y-83835400D01*
X118664600Y-85664600D01*
X118664600Y-85664600D01*
G37*
G36*
X103679294Y-82608633D02*
X103851694Y-82660931D01*
X103851696Y-82660932D01*
X104010583Y-82745859D01*
X104010585Y-82745860D01*
X104010584Y-82745860D01*
X104149849Y-82860151D01*
X104264140Y-82999416D01*
X104349069Y-83158306D01*
X104401367Y-83330706D01*
X104419025Y-83510000D01*
X104401367Y-83689294D01*
X104349069Y-83861694D01*
X104349068Y-83861696D01*
X104264141Y-84020583D01*
X104149849Y-84159849D01*
X104010583Y-84274141D01*
X103851696Y-84359068D01*
X103851694Y-84359069D01*
X103679294Y-84411367D01*
X103544931Y-84424600D01*
X103455069Y-84424600D01*
X103320706Y-84411367D01*
X103148306Y-84359069D01*
X103148304Y-84359068D01*
X102989417Y-84274141D01*
X102850151Y-84159849D01*
X102735859Y-84020583D01*
X102650932Y-83861696D01*
X102650931Y-83861694D01*
X102598633Y-83689294D01*
X102580975Y-83510000D01*
X102598633Y-83330706D01*
X102650931Y-83158306D01*
X102735860Y-82999416D01*
X102850151Y-82860151D01*
X102989416Y-82745860D01*
X102989415Y-82745860D01*
X102989417Y-82745859D01*
X103148304Y-82660932D01*
X103148306Y-82660931D01*
X103320706Y-82608633D01*
X103455069Y-82595400D01*
X103544931Y-82595400D01*
X103679294Y-82608633D01*
X103679294Y-82608633D01*
G37*
G36*
X101139294Y-82608633D02*
X101311694Y-82660931D01*
X101311696Y-82660932D01*
X101470583Y-82745859D01*
X101470585Y-82745860D01*
X101470584Y-82745860D01*
X101609849Y-82860151D01*
X101724140Y-82999416D01*
X101809069Y-83158306D01*
X101861367Y-83330706D01*
X101879025Y-83510000D01*
X101861367Y-83689294D01*
X101809069Y-83861694D01*
X101809068Y-83861696D01*
X101724141Y-84020583D01*
X101609849Y-84159849D01*
X101470583Y-84274141D01*
X101311696Y-84359068D01*
X101311694Y-84359069D01*
X101139294Y-84411367D01*
X101004931Y-84424600D01*
X100915069Y-84424600D01*
X100780706Y-84411367D01*
X100608306Y-84359069D01*
X100608304Y-84359068D01*
X100449417Y-84274141D01*
X100310151Y-84159849D01*
X100195859Y-84020583D01*
X100110932Y-83861696D01*
X100110931Y-83861694D01*
X100058633Y-83689294D01*
X100040975Y-83510000D01*
X100058633Y-83330706D01*
X100110931Y-83158306D01*
X100195860Y-82999416D01*
X100310151Y-82860151D01*
X100449416Y-82745860D01*
X100449415Y-82745860D01*
X100449417Y-82745859D01*
X100608304Y-82660932D01*
X100608306Y-82660931D01*
X100780706Y-82608633D01*
X100915069Y-82595400D01*
X101004931Y-82595400D01*
X101139294Y-82608633D01*
X101139294Y-82608633D01*
G37*
G36*
X110860443Y-81435519D02*
X110926627Y-81442037D01*
X111039853Y-81476384D01*
X111096467Y-81493557D01*
X111235087Y-81567652D01*
X111252991Y-81577222D01*
X111288729Y-81606552D01*
X111390186Y-81689814D01*
X111473448Y-81791271D01*
X111502778Y-81827009D01*
X111502779Y-81827011D01*
X111586443Y-81983533D01*
X111586443Y-81983534D01*
X111637963Y-82153373D01*
X111655359Y-82330000D01*
X111637963Y-82506627D01*
X111611034Y-82595400D01*
X111586443Y-82676467D01*
X111549351Y-82745860D01*
X111502778Y-82832991D01*
X111480488Y-82860151D01*
X111390186Y-82970186D01*
X111288729Y-83053448D01*
X111252991Y-83082778D01*
X111252989Y-83082779D01*
X111096467Y-83166443D01*
X111039853Y-83183616D01*
X110926627Y-83217963D01*
X110860442Y-83224482D01*
X110794260Y-83231000D01*
X110705740Y-83231000D01*
X110639558Y-83224482D01*
X110573373Y-83217963D01*
X110460147Y-83183616D01*
X110403533Y-83166443D01*
X110247011Y-83082779D01*
X110247009Y-83082778D01*
X110211271Y-83053448D01*
X110109814Y-82970186D01*
X110019512Y-82860151D01*
X109997222Y-82832991D01*
X109950649Y-82745860D01*
X109913557Y-82676467D01*
X109888966Y-82595400D01*
X109862037Y-82506627D01*
X109844641Y-82330000D01*
X109862037Y-82153373D01*
X109913557Y-81983534D01*
X109913557Y-81983533D01*
X109997221Y-81827011D01*
X109997222Y-81827009D01*
X110026552Y-81791271D01*
X110109814Y-81689814D01*
X110211271Y-81606552D01*
X110247009Y-81577222D01*
X110264913Y-81567652D01*
X110403533Y-81493557D01*
X110460147Y-81476384D01*
X110573373Y-81442037D01*
X110639557Y-81435519D01*
X110705740Y-81429000D01*
X110794260Y-81429000D01*
X110860443Y-81435519D01*
X110860443Y-81435519D01*
G37*
G36*
X103679294Y-80068633D02*
X103851694Y-80120931D01*
X103851696Y-80120932D01*
X104010583Y-80205859D01*
X104010585Y-80205860D01*
X104010584Y-80205860D01*
X104149849Y-80320151D01*
X104264140Y-80459416D01*
X104349069Y-80618306D01*
X104401367Y-80790706D01*
X104419025Y-80970000D01*
X104401367Y-81149294D01*
X104349069Y-81321694D01*
X104349068Y-81321696D01*
X104264141Y-81480583D01*
X104149849Y-81619849D01*
X104010583Y-81734141D01*
X103851696Y-81819068D01*
X103851694Y-81819069D01*
X103679294Y-81871367D01*
X103544931Y-81884600D01*
X103455069Y-81884600D01*
X103320706Y-81871367D01*
X103148306Y-81819069D01*
X103148304Y-81819068D01*
X102989417Y-81734141D01*
X102850151Y-81619849D01*
X102735859Y-81480583D01*
X102650932Y-81321696D01*
X102650931Y-81321694D01*
X102598633Y-81149294D01*
X102580975Y-80970000D01*
X102598633Y-80790706D01*
X102650931Y-80618306D01*
X102735860Y-80459416D01*
X102850151Y-80320151D01*
X102989416Y-80205860D01*
X102989415Y-80205860D01*
X102989417Y-80205859D01*
X103148304Y-80120932D01*
X103148306Y-80120931D01*
X103320706Y-80068633D01*
X103455069Y-80055400D01*
X103544931Y-80055400D01*
X103679294Y-80068633D01*
X103679294Y-80068633D01*
G37*
G36*
X101139294Y-80068633D02*
X101311694Y-80120931D01*
X101311696Y-80120932D01*
X101470583Y-80205859D01*
X101470585Y-80205860D01*
X101470584Y-80205860D01*
X101609849Y-80320151D01*
X101724140Y-80459416D01*
X101809069Y-80618306D01*
X101861367Y-80790706D01*
X101879025Y-80970000D01*
X101861367Y-81149294D01*
X101809069Y-81321694D01*
X101809068Y-81321696D01*
X101724141Y-81480583D01*
X101609849Y-81619849D01*
X101470583Y-81734141D01*
X101311696Y-81819068D01*
X101311694Y-81819069D01*
X101139294Y-81871367D01*
X101004931Y-81884600D01*
X100915069Y-81884600D01*
X100780706Y-81871367D01*
X100608306Y-81819069D01*
X100608304Y-81819068D01*
X100449417Y-81734141D01*
X100310151Y-81619849D01*
X100195859Y-81480583D01*
X100110932Y-81321696D01*
X100110931Y-81321694D01*
X100058633Y-81149294D01*
X100040975Y-80970000D01*
X100058633Y-80790706D01*
X100110931Y-80618306D01*
X100195860Y-80459416D01*
X100310151Y-80320151D01*
X100449416Y-80205860D01*
X100449415Y-80205860D01*
X100449417Y-80205859D01*
X100608304Y-80120932D01*
X100608306Y-80120931D01*
X100780706Y-80068633D01*
X100915069Y-80055400D01*
X101004931Y-80055400D01*
X101139294Y-80068633D01*
X101139294Y-80068633D01*
G37*
G36*
X110860442Y-78895518D02*
X110926627Y-78902037D01*
X111039853Y-78936384D01*
X111096467Y-78953557D01*
X111235087Y-79027652D01*
X111252991Y-79037222D01*
X111288729Y-79066552D01*
X111390186Y-79149814D01*
X111473448Y-79251271D01*
X111502778Y-79287009D01*
X111502779Y-79287011D01*
X111586443Y-79443533D01*
X111586443Y-79443534D01*
X111637963Y-79613373D01*
X111655359Y-79790000D01*
X111637963Y-79966627D01*
X111611034Y-80055400D01*
X111586443Y-80136467D01*
X111549351Y-80205860D01*
X111502778Y-80292991D01*
X111480488Y-80320151D01*
X111390186Y-80430186D01*
X111288729Y-80513448D01*
X111252991Y-80542778D01*
X111252989Y-80542779D01*
X111096467Y-80626443D01*
X111039853Y-80643616D01*
X110926627Y-80677963D01*
X110860443Y-80684481D01*
X110794260Y-80691000D01*
X110705740Y-80691000D01*
X110639557Y-80684481D01*
X110573373Y-80677963D01*
X110460147Y-80643616D01*
X110403533Y-80626443D01*
X110247011Y-80542779D01*
X110247009Y-80542778D01*
X110211271Y-80513448D01*
X110109814Y-80430186D01*
X110019512Y-80320151D01*
X109997222Y-80292991D01*
X109950649Y-80205860D01*
X109913557Y-80136467D01*
X109888966Y-80055400D01*
X109862037Y-79966627D01*
X109844641Y-79790000D01*
X109862037Y-79613373D01*
X109913557Y-79443534D01*
X109913557Y-79443533D01*
X109997221Y-79287011D01*
X109997222Y-79287009D01*
X110026552Y-79251271D01*
X110109814Y-79149814D01*
X110211271Y-79066552D01*
X110247009Y-79037222D01*
X110264913Y-79027652D01*
X110403533Y-78953557D01*
X110460147Y-78936384D01*
X110573373Y-78902037D01*
X110639558Y-78895518D01*
X110705740Y-78889000D01*
X110794260Y-78889000D01*
X110860442Y-78895518D01*
X110860442Y-78895518D01*
G37*
G36*
X101139294Y-77528633D02*
X101311694Y-77580931D01*
X101311696Y-77580932D01*
X101470583Y-77665859D01*
X101470585Y-77665860D01*
X101470584Y-77665860D01*
X101609849Y-77780151D01*
X101724140Y-77919416D01*
X101809069Y-78078306D01*
X101861367Y-78250706D01*
X101879025Y-78430000D01*
X101861367Y-78609294D01*
X101809069Y-78781694D01*
X101809068Y-78781696D01*
X101724141Y-78940583D01*
X101609849Y-79079849D01*
X101470583Y-79194141D01*
X101311696Y-79279068D01*
X101311694Y-79279069D01*
X101139294Y-79331367D01*
X101004931Y-79344600D01*
X100915069Y-79344600D01*
X100780706Y-79331367D01*
X100608306Y-79279069D01*
X100608304Y-79279068D01*
X100449417Y-79194141D01*
X100310151Y-79079849D01*
X100195859Y-78940583D01*
X100110932Y-78781696D01*
X100110931Y-78781694D01*
X100058633Y-78609294D01*
X100040975Y-78430000D01*
X100058633Y-78250706D01*
X100110931Y-78078306D01*
X100195860Y-77919416D01*
X100310151Y-77780151D01*
X100449416Y-77665860D01*
X100449415Y-77665860D01*
X100449417Y-77665859D01*
X100608304Y-77580932D01*
X100608306Y-77580931D01*
X100780706Y-77528633D01*
X100915069Y-77515400D01*
X101004931Y-77515400D01*
X101139294Y-77528633D01*
X101139294Y-77528633D01*
G37*
G36*
X103679294Y-77528633D02*
X103851694Y-77580931D01*
X103851696Y-77580932D01*
X104010583Y-77665859D01*
X104010585Y-77665860D01*
X104010584Y-77665860D01*
X104149849Y-77780151D01*
X104264140Y-77919416D01*
X104349069Y-78078306D01*
X104401367Y-78250706D01*
X104419025Y-78430000D01*
X104401367Y-78609294D01*
X104349069Y-78781694D01*
X104349068Y-78781696D01*
X104264141Y-78940583D01*
X104149849Y-79079849D01*
X104010583Y-79194141D01*
X103851696Y-79279068D01*
X103851694Y-79279069D01*
X103679294Y-79331367D01*
X103544931Y-79344600D01*
X103455069Y-79344600D01*
X103320706Y-79331367D01*
X103148306Y-79279069D01*
X103148304Y-79279068D01*
X102989417Y-79194141D01*
X102850151Y-79079849D01*
X102735859Y-78940583D01*
X102650932Y-78781696D01*
X102650931Y-78781694D01*
X102598633Y-78609294D01*
X102580975Y-78430000D01*
X102598633Y-78250706D01*
X102650931Y-78078306D01*
X102735860Y-77919416D01*
X102850151Y-77780151D01*
X102989416Y-77665860D01*
X102989415Y-77665860D01*
X102989417Y-77665859D01*
X103148304Y-77580932D01*
X103148306Y-77580931D01*
X103320706Y-77528633D01*
X103455069Y-77515400D01*
X103544931Y-77515400D01*
X103679294Y-77528633D01*
X103679294Y-77528633D01*
G37*
G36*
X111651000Y-78151000D02*
X109849000Y-78151000D01*
X109849000Y-76349000D01*
X111651000Y-76349000D01*
X111651000Y-78151000D01*
X111651000Y-78151000D01*
G37*
G36*
X101139294Y-74988633D02*
X101311694Y-75040931D01*
X101311696Y-75040932D01*
X101470583Y-75125859D01*
X101470585Y-75125860D01*
X101470584Y-75125860D01*
X101609849Y-75240151D01*
X101724140Y-75379416D01*
X101809069Y-75538306D01*
X101861367Y-75710706D01*
X101879025Y-75890000D01*
X101861367Y-76069294D01*
X101809069Y-76241694D01*
X101809068Y-76241696D01*
X101724141Y-76400583D01*
X101609849Y-76539849D01*
X101470583Y-76654141D01*
X101311696Y-76739068D01*
X101311694Y-76739069D01*
X101139294Y-76791367D01*
X101004931Y-76804600D01*
X100915069Y-76804600D01*
X100780706Y-76791367D01*
X100608306Y-76739069D01*
X100608304Y-76739068D01*
X100449417Y-76654141D01*
X100310151Y-76539849D01*
X100195859Y-76400583D01*
X100110932Y-76241696D01*
X100110931Y-76241694D01*
X100058633Y-76069294D01*
X100040975Y-75890000D01*
X100058633Y-75710706D01*
X100110931Y-75538306D01*
X100195860Y-75379416D01*
X100310151Y-75240151D01*
X100449416Y-75125860D01*
X100449415Y-75125860D01*
X100449417Y-75125859D01*
X100608304Y-75040932D01*
X100608306Y-75040931D01*
X100780706Y-74988633D01*
X100915069Y-74975400D01*
X101004931Y-74975400D01*
X101139294Y-74988633D01*
X101139294Y-74988633D01*
G37*
G36*
X103679294Y-74988633D02*
X103851694Y-75040931D01*
X103851696Y-75040932D01*
X104010583Y-75125859D01*
X104010585Y-75125860D01*
X104010584Y-75125860D01*
X104149849Y-75240151D01*
X104264140Y-75379416D01*
X104349069Y-75538306D01*
X104401367Y-75710706D01*
X104419025Y-75890000D01*
X104401367Y-76069294D01*
X104349069Y-76241694D01*
X104349068Y-76241696D01*
X104264141Y-76400583D01*
X104149849Y-76539849D01*
X104010583Y-76654141D01*
X103851696Y-76739068D01*
X103851694Y-76739069D01*
X103679294Y-76791367D01*
X103544931Y-76804600D01*
X103455069Y-76804600D01*
X103320706Y-76791367D01*
X103148306Y-76739069D01*
X103148304Y-76739068D01*
X102989417Y-76654141D01*
X102850151Y-76539849D01*
X102735859Y-76400583D01*
X102650932Y-76241696D01*
X102650931Y-76241694D01*
X102598633Y-76069294D01*
X102580975Y-75890000D01*
X102598633Y-75710706D01*
X102650931Y-75538306D01*
X102735860Y-75379416D01*
X102850151Y-75240151D01*
X102989416Y-75125860D01*
X102989415Y-75125860D01*
X102989417Y-75125859D01*
X103148304Y-75040932D01*
X103148306Y-75040931D01*
X103320706Y-74988633D01*
X103455069Y-74975400D01*
X103544931Y-74975400D01*
X103679294Y-74988633D01*
X103679294Y-74988633D01*
G37*
M02*
