G04 #@! TF.GenerationSoftware,KiCad,Pcbnew,(5.0.1-3-g963ef8bb5)*
G04 #@! TF.CreationDate,2018-11-27T15:22:05+00:00*
G04 #@! TF.ProjectId,jlink-swd-adapter,6A6C696E6B2D7377642D616461707465,rev?*
G04 #@! TF.SameCoordinates,Original*
G04 #@! TF.FileFunction,Legend,Bot*
G04 #@! TF.FilePolarity,Positive*
%FSLAX46Y46*%
G04 Gerber Fmt 4.6, Leading zero omitted, Abs format (unit mm)*
G04 Created by KiCad (PCBNEW (5.0.1-3-g963ef8bb5)) date Tuesday, 27 November 2018 at 15:22:05*
%MOMM*%
%LPD*%
G01*
G04 APERTURE LIST*
%ADD10C,0.300000*%
%ADD11C,0.500000*%
G04 APERTURE END LIST*
D10*
X113428571Y-77357142D02*
X114500000Y-77357142D01*
X114714285Y-77285714D01*
X114857142Y-77142857D01*
X114928571Y-76928571D01*
X114928571Y-76785714D01*
X113428571Y-77857142D02*
X113428571Y-78714285D01*
X114928571Y-78285714D02*
X113428571Y-78285714D01*
X114500000Y-79142857D02*
X114500000Y-79857142D01*
X114928571Y-79000000D02*
X113428571Y-79500000D01*
X114928571Y-80000000D01*
X113500000Y-81285714D02*
X113428571Y-81142857D01*
X113428571Y-80928571D01*
X113500000Y-80714285D01*
X113642857Y-80571428D01*
X113785714Y-80500000D01*
X114071428Y-80428571D01*
X114285714Y-80428571D01*
X114571428Y-80500000D01*
X114714285Y-80571428D01*
X114857142Y-80714285D01*
X114928571Y-80928571D01*
X114928571Y-81071428D01*
X114857142Y-81285714D01*
X114785714Y-81357142D01*
X114285714Y-81357142D01*
X114285714Y-81071428D01*
X114357142Y-83142857D02*
X114357142Y-84285714D01*
X114857142Y-86071428D02*
X114928571Y-86285714D01*
X114928571Y-86642857D01*
X114857142Y-86785714D01*
X114785714Y-86857142D01*
X114642857Y-86928571D01*
X114500000Y-86928571D01*
X114357142Y-86857142D01*
X114285714Y-86785714D01*
X114214285Y-86642857D01*
X114142857Y-86357142D01*
X114071428Y-86214285D01*
X114000000Y-86142857D01*
X113857142Y-86071428D01*
X113714285Y-86071428D01*
X113571428Y-86142857D01*
X113500000Y-86214285D01*
X113428571Y-86357142D01*
X113428571Y-86714285D01*
X113500000Y-86928571D01*
X113428571Y-87428571D02*
X114928571Y-87785714D01*
X113857142Y-88071428D01*
X114928571Y-88357142D01*
X113428571Y-88714285D01*
X114928571Y-89285714D02*
X113428571Y-89285714D01*
X113428571Y-89642857D01*
X113500000Y-89857142D01*
X113642857Y-90000000D01*
X113785714Y-90071428D01*
X114071428Y-90142857D01*
X114285714Y-90142857D01*
X114571428Y-90071428D01*
X114714285Y-90000000D01*
X114857142Y-89857142D01*
X114928571Y-89642857D01*
X114928571Y-89285714D01*
X115500000Y-92357142D02*
X115428571Y-92285714D01*
X115214285Y-92142857D01*
X115071428Y-92071428D01*
X114857142Y-92000000D01*
X114500000Y-91928571D01*
X114214285Y-91928571D01*
X113857142Y-92000000D01*
X113642857Y-92071428D01*
X113500000Y-92142857D01*
X113285714Y-92285714D01*
X113214285Y-92357142D01*
X113428571Y-92714285D02*
X114928571Y-93214285D01*
X113428571Y-93714285D01*
X114928571Y-95000000D02*
X114928571Y-94142857D01*
X114928571Y-94571428D02*
X113428571Y-94571428D01*
X113642857Y-94428571D01*
X113785714Y-94285714D01*
X113857142Y-94142857D01*
X114785714Y-95642857D02*
X114857142Y-95714285D01*
X114928571Y-95642857D01*
X114857142Y-95571428D01*
X114785714Y-95642857D01*
X114928571Y-95642857D01*
X113428571Y-96642857D02*
X113428571Y-96785714D01*
X113500000Y-96928571D01*
X113571428Y-97000000D01*
X113714285Y-97071428D01*
X114000000Y-97142857D01*
X114357142Y-97142857D01*
X114642857Y-97071428D01*
X114785714Y-97000000D01*
X114857142Y-96928571D01*
X114928571Y-96785714D01*
X114928571Y-96642857D01*
X114857142Y-96500000D01*
X114785714Y-96428571D01*
X114642857Y-96357142D01*
X114357142Y-96285714D01*
X114000000Y-96285714D01*
X113714285Y-96357142D01*
X113571428Y-96428571D01*
X113500000Y-96500000D01*
X113428571Y-96642857D01*
X115500000Y-97642857D02*
X115428571Y-97714285D01*
X115214285Y-97857142D01*
X115071428Y-97928571D01*
X114857142Y-98000000D01*
X114500000Y-98071428D01*
X114214285Y-98071428D01*
X113857142Y-98000000D01*
X113642857Y-97928571D01*
X113500000Y-97857142D01*
X113285714Y-97714285D01*
X113214285Y-97642857D01*
D11*
X105857142Y-76678571D02*
X107857142Y-77392857D01*
X105857142Y-78107142D01*
X106428571Y-81107142D02*
X106285714Y-80964285D01*
X106142857Y-80678571D01*
X106142857Y-80392857D01*
X106285714Y-80107142D01*
X106428571Y-79964285D01*
X106714285Y-79821428D01*
X107000000Y-79821428D01*
X107285714Y-79964285D01*
X107428571Y-80107142D01*
X107571428Y-80392857D01*
X107571428Y-80678571D01*
X107428571Y-80964285D01*
X107285714Y-81107142D01*
X106142857Y-81107142D02*
X107285714Y-81107142D01*
X107428571Y-81250000D01*
X107428571Y-81392857D01*
X107285714Y-81678571D01*
X107000000Y-81821428D01*
X106285714Y-81821428D01*
X105857142Y-81535714D01*
X105571428Y-81107142D01*
X105428571Y-80535714D01*
X105571428Y-79964285D01*
X105857142Y-79535714D01*
X106285714Y-79250000D01*
X106857142Y-79107142D01*
X107428571Y-79250000D01*
X107857142Y-79535714D01*
X108142857Y-79964285D01*
X108285714Y-80535714D01*
X108142857Y-81107142D01*
X107857142Y-81535714D01*
X105857142Y-83107142D02*
X107857142Y-83107142D01*
X106142857Y-83107142D02*
X106000000Y-83250000D01*
X105857142Y-83535714D01*
X105857142Y-83964285D01*
X106000000Y-84250000D01*
X106285714Y-84392857D01*
X107857142Y-84392857D01*
X107714285Y-87107142D02*
X107857142Y-86821428D01*
X107857142Y-86250000D01*
X107714285Y-85964285D01*
X107571428Y-85821428D01*
X107285714Y-85678571D01*
X106428571Y-85678571D01*
X106142857Y-85821428D01*
X106000000Y-85964285D01*
X105857142Y-86250000D01*
X105857142Y-86821428D01*
X106000000Y-87107142D01*
X107714285Y-89535714D02*
X107857142Y-89250000D01*
X107857142Y-88678571D01*
X107714285Y-88392857D01*
X107428571Y-88250000D01*
X106285714Y-88250000D01*
X106000000Y-88392857D01*
X105857142Y-88678571D01*
X105857142Y-89250000D01*
X106000000Y-89535714D01*
X106285714Y-89678571D01*
X106571428Y-89678571D01*
X106857142Y-88250000D01*
X107571428Y-90964285D02*
X107714285Y-91107142D01*
X107857142Y-90964285D01*
X107714285Y-90821428D01*
X107571428Y-90964285D01*
X107857142Y-90964285D01*
X107857142Y-92392857D02*
X105857142Y-92392857D01*
X106142857Y-92392857D02*
X106000000Y-92535714D01*
X105857142Y-92821428D01*
X105857142Y-93250000D01*
X106000000Y-93535714D01*
X106285714Y-93678571D01*
X107857142Y-93678571D01*
X106285714Y-93678571D02*
X106000000Y-93821428D01*
X105857142Y-94107142D01*
X105857142Y-94535714D01*
X106000000Y-94821428D01*
X106285714Y-94964285D01*
X107857142Y-94964285D01*
X107714285Y-97535714D02*
X107857142Y-97250000D01*
X107857142Y-96678571D01*
X107714285Y-96392857D01*
X107428571Y-96250000D01*
X106285714Y-96250000D01*
X106000000Y-96392857D01*
X105857142Y-96678571D01*
X105857142Y-97250000D01*
X106000000Y-97535714D01*
X106285714Y-97678571D01*
X106571428Y-97678571D01*
X106857142Y-96250000D01*
M02*
